<svg version="1.1" id="Layer_1" xmlns="http://www.w3.org/2000/svg" xmlns:xlink="http://www.w3.org/1999/xlink" x="0px" y="0px" width="100%" viewBox="0 0 2022 2021" enable-background="new 0 0 2022 2021" xml:space="preserve">
  <path fill="#18171C" opacity="1.000000" stroke="none" d="
M1540.229004,1830.218018 
	C1515.859741,1844.519409 1491.988403,1858.978760 1467.636230,1872.576538 
	C1432.595093,1892.142944 1395.726440,1907.786377 1358.264404,1922.101929 
	C1318.197266,1937.412842 1277.243774,1949.818115 1235.425415,1959.181152 
	C1211.561401,1964.524170 1187.441406,1968.810181 1163.322632,1972.899780 
	C1146.066895,1975.825684 1128.647095,1977.856201 1111.251343,1979.858154 
	C1101.225464,1981.011719 1091.110596,1981.514648 1081.020142,1981.956421 
	C1062.279907,1982.777222 1043.532959,1983.607788 1024.780029,1983.933105 
	C1005.705750,1984.264038 986.611084,1984.365112 967.544006,1983.860962 
	C952.990417,1983.476074 938.426392,1982.375977 923.938477,1980.895264 
	C905.533630,1979.014038 887.184692,1976.549072 868.840698,1974.116699 
	C834.680969,1969.587036 800.999451,1962.582886 767.624268,1954.076050 
	C723.480103,1942.824463 680.279724,1928.655273 638.287292,1911.008301 
	C617.000000,1902.062622 595.597229,1893.116821 575.235352,1882.308594 
	C545.031677,1866.276123 515.221924,1849.370728 486.159027,1831.361084 
	C462.785797,1816.877075 440.409058,1800.691772 418.270599,1784.339966 
	C402.297516,1772.541870 387.207001,1759.502930 372.160339,1746.510742 
	C359.347046,1735.447144 346.952271,1723.874634 334.748688,1712.135864 
	C321.575867,1699.464600 308.206116,1686.904053 296.063171,1673.278442 
	C277.989288,1652.997925 260.154663,1632.410278 243.620193,1610.876831 
	C224.945343,1586.555786 207.223770,1561.441772 190.225128,1535.915039 
	C178.004028,1517.562988 167.204147,1498.212646 156.587555,1478.859131 
	C146.274475,1460.058838 136.241928,1441.028809 127.467155,1421.479736 
	C116.595467,1397.259033 106.629311,1372.596191 97.202927,1347.770874 
	C83.284370,1311.114868 72.179565,1273.529175 63.727287,1235.242920 
	C58.525383,1211.680054 54.004707,1187.936890 50.130383,1164.119873 
	C47.002094,1144.888916 45.022552,1125.454224 43.054478,1106.057129 
	C41.601189,1091.733765 40.487854,1077.338257 40.106941,1062.951660 
	C39.397892,1036.171997 38.734261,1009.365051 39.192551,982.589050 
	C39.549316,961.744873 41.221252,940.893372 43.073441,920.113220 
	C44.892448,899.705627 47.069504,879.291138 50.168964,859.044922 
	C55.782398,822.376770 63.251827,786.046204 73.426056,750.343750 
	C78.927971,731.036987 84.301514,711.632996 91.134293,692.780762 
	C100.746841,666.258911 111.052635,639.946838 122.208702,614.038940 
	C131.339081,592.835327 141.417618,571.959351 152.405380,551.657715 
	C164.567322,529.186523 177.547699,507.084045 191.445236,485.646637 
	C206.321274,462.699921 222.273895,440.413940 238.539368,418.418365 
	C249.165421,404.048828 260.743805,390.314026 272.683533,377.001617 
	C290.760590,356.846405 308.895081,336.667877 328.176636,317.689423 
	C346.484711,299.669159 366.104736,282.956207 385.495087,266.067078 
	C414.562286,240.749344 445.722351,218.137070 478.194916,197.453094 
	C500.588318,183.189209 523.604797,169.864075 546.707458,156.762390 
	C581.606384,136.971054 617.966003,120.029312 655.516357,106.040459 
	C687.058533,94.289848 719.079102,83.604790 751.412415,74.263161 
	C779.050781,66.277969 807.345703,60.454231 835.522095,54.485855 
	C851.340637,51.135136 867.472900,49.163555 883.527527,47.056171 
	C901.058655,44.754971 918.658936,42.972847 936.239197,41.057308 
	C941.009583,40.537533 945.813538,40.111111 950.607117,40.053658 
	C984.728821,39.644745 1018.853577,38.997734 1052.973755,39.163868 
	C1068.182251,39.237915 1083.465088,40.335018 1098.568481,42.169296 
	C1126.771362,45.594498 1154.936035,49.467896 1182.993774,53.928070 
	C1234.549316,62.123562 1284.751953,75.866570 1333.895996,93.269920 
	C1357.508423,101.631752 1380.676636,111.312401 1403.775024,121.039154 
	C1419.547607,127.681038 1435.029785,135.081284 1450.328003,142.767014 
	C1481.527222,158.441315 1511.649536,176.007980 1541.018799,194.921280 
	C1572.018921,214.884720 1601.659058,236.693314 1630.201538,259.960663 
	C1645.360474,272.318115 1659.892822,285.488953 1674.189697,298.847290 
	C1689.876831,313.504822 1705.430420,328.362244 1720.186646,343.942871 
	C1734.656128,359.220886 1748.222168,375.370911 1761.878662,391.399170 
	C1786.545166,420.350006 1809.106201,450.912506 1829.458130,483.023468 
	C1842.340088,503.348633 1854.715332,524.037292 1866.356445,545.094360 
	C1877.455078,565.169556 1888.162842,585.552734 1897.489136,606.492432 
	C1909.099854,632.561157 1919.592773,659.159363 1929.703857,685.856323 
	C1942.471558,719.567810 1952.322998,754.236755 1960.131714,789.411926 
	C1965.396729,813.128540 1969.892456,837.040649 1973.896973,861.004883 
	C1977.217163,880.874329 1979.621582,900.913940 1981.842041,920.943542 
	C1983.154907,932.786926 1983.601562,944.749268 1983.948608,956.672302 
	C1984.785400,985.414001 1986.003540,1014.169312 1985.775269,1042.908813 
	C1985.611206,1063.579102 1983.788330,1084.271484 1981.921753,1104.882935 
	C1980.148804,1124.460693 1977.866577,1144.024902 1974.870850,1163.450439 
	C1971.848511,1183.047729 1967.970215,1202.528809 1963.938477,1221.951050 
	C1956.851074,1256.092407 1947.598389,1289.707397 1935.804688,1322.491577 
	C1925.694946,1350.594971 1914.561157,1378.365845 1902.853027,1405.846069 
	C1894.382690,1425.726685 1885.004883,1445.314331 1874.635254,1464.268555 
	C1861.254395,1488.726929 1847.240601,1512.915283 1832.097412,1536.312622 
	C1816.069824,1561.076660 1798.845581,1585.108276 1781.279175,1608.818970 
	C1770.149780,1623.841431 1757.687988,1637.909912 1745.366699,1652.006592 
	C1734.005127,1665.005371 1722.228516,1677.657959 1710.274902,1690.117798 
	C1698.544556,1702.345215 1686.906006,1714.751953 1674.252319,1725.981812 
	C1653.559937,1744.345947 1632.559448,1762.434937 1610.789673,1779.492432 
	C1589.793457,1795.943970 1567.665039,1810.951416 1546.012573,1826.563477 
	C1544.264160,1827.823975 1542.349487,1828.854004 1540.229004,1830.218018 
M1966.813110,1061.813110 
	C1967.182861,1061.309692 1967.870728,1060.808960 1967.875244,1060.302246 
	C1967.960693,1050.687134 1968.011230,1041.071045 1967.905518,1031.456787 
	C1967.896484,1030.635742 1966.736816,1029.827271 1966.029419,1028.077515 
	C1965.998291,1022.248291 1965.882812,1016.418091 1965.955200,1010.590149 
	C1966.073120,1001.089966 1962.468750,994.471252 1952.860107,991.363892 
	C1946.239502,989.222778 1939.937622,986.088989 1933.509033,983.361877 
	C1890.036133,964.919373 1846.536865,946.538879 1803.105957,927.997681 
	C1759.219238,909.261841 1714.666992,892.286194 1669.211182,877.781433 
	C1633.160034,866.277649 1596.633545,856.497253 1559.324585,849.857849 
	C1551.077515,848.390259 1545.616333,842.982178 1544.073242,835.381592 
	C1539.225098,811.500122 1531.222290,788.658691 1520.809570,766.677429 
	C1501.053955,724.973450 1473.243286,689.594604 1437.253418,660.623657 
	C1403.746338,633.651367 1367.084839,612.787354 1325.593018,600.538330 
	C1297.482666,592.239685 1268.815918,588.188049 1239.683228,588.280273 
	C1222.811157,588.333740 1205.869507,590.030090 1189.094604,592.089661 
	C1154.433838,596.345276 1121.779663,607.434570 1091.012817,623.773621 
	C1058.320312,641.135193 1029.077637,663.091003 1003.853088,690.400391 
	C984.510071,711.342163 968.465637,734.465393 955.671997,759.848511 
	C950.661804,769.788940 946.754883,780.286499 941.717224,790.211487 
	C940.272888,793.057190 936.804321,796.448914 933.968201,796.743530 
	C921.433167,798.045837 908.787781,798.266174 896.187012,798.960754 
	C878.943726,799.911255 861.687256,800.703613 844.467896,801.985962 
	C820.480652,803.772522 796.498657,805.704529 772.559143,808.033630 
	C751.605225,810.072266 730.641663,812.250061 709.810120,815.252747 
	C677.985046,819.840027 646.148804,824.537231 614.542969,830.403809 
	C584.065857,836.060852 553.791016,842.897156 523.584290,849.893127 
	C498.529663,855.695984 473.683655,862.408752 448.782196,868.861206 
	C429.535461,873.848389 410.161407,878.456970 391.172821,884.302246 
	C359.904358,893.927551 328.840302,904.232544 297.806732,914.600281 
	C273.234558,922.809448 248.787384,931.401978 224.379486,940.090515 
	C207.487473,946.103638 190.779999,952.633118 173.947723,958.816589 
	C155.100082,965.740479 136.138519,972.358887 117.351242,979.440918 
	C102.600571,985.001343 88.031990,991.045959 73.397118,996.911865 
	C63.676109,1000.808228 61.904541,1003.393738 61.893631,1013.688904 
	C61.872086,1034.020752 61.495621,1054.362671 62.014534,1074.681274 
	C62.412422,1090.261230 63.503235,1105.859619 65.132957,1121.360718 
	C66.552513,1134.862793 68.940826,1148.278564 71.314598,1161.659180 
	C72.877533,1170.469116 75.029671,1179.184937 77.192291,1187.874634 
	C78.643570,1193.706177 81.403168,1195.051514 86.071358,1193.266846 
	C109.190361,1184.428345 132.141953,1175.092896 155.533905,1167.040527 
	C195.061096,1153.434082 234.871307,1140.649414 274.571075,1127.545288 
	C285.096954,1124.070923 295.590149,1120.476562 306.210632,1117.314575 
	C327.208008,1111.062866 348.264648,1105.007202 369.333801,1099.000366 
	C383.366180,1095.000000 397.480011,1091.286011 411.525299,1087.329956 
	C424.474854,1083.682617 437.249390,1079.312866 450.337036,1076.279663 
	C471.970917,1071.265625 493.789886,1067.047607 515.539917,1062.538208 
	C530.968079,1059.339478 546.351196,1055.874023 561.860779,1053.129150 
	C588.629028,1048.391846 615.456848,1043.976074 642.304138,1039.704956 
	C661.942932,1036.580811 681.615784,1033.610840 701.341492,1031.108521 
	C722.887817,1028.375000 744.499207,1026.130615 766.106506,1023.908936 
	C789.694885,1021.483582 813.281921,1018.939392 836.923767,1017.171326 
	C858.292053,1015.573242 879.736450,1015.009155 901.140808,1013.867249 
	C907.926575,1013.505249 914.716980,1012.959900 921.460327,1012.131958 
	C934.764587,1010.498596 938.948242,1013.066833 944.492065,1024.921021 
	C950.823364,1038.458984 957.281921,1051.989136 964.623352,1064.992920 
	C982.230774,1096.181519 1005.274170,1123.077271 1032.749146,1145.885986 
	C1063.835815,1171.692993 1098.554199,1191.244385 1136.998291,1204.316772 
	C1165.115112,1213.877441 1193.956909,1218.708252 1223.414429,1219.743042 
	C1238.313110,1220.266479 1253.298950,1218.917358 1268.221558,1218.018677 
	C1291.556152,1216.613281 1314.133789,1211.127930 1336.168945,1203.694336 
	C1378.991699,1189.248047 1417.076416,1166.531006 1450.331055,1135.946777 
	C1471.766479,1116.232666 1489.634888,1093.516602 1504.696533,1068.598389 
	C1508.194946,1062.810547 1511.764893,1060.964355 1518.451904,1062.088135 
	C1524.335449,1063.077026 1530.190430,1064.268311 1536.018188,1065.551392 
	C1555.131470,1069.759521 1574.359131,1073.535522 1593.300049,1078.419556 
	C1629.598633,1087.779053 1665.912231,1097.165894 1701.878174,1107.705811 
	C1735.025269,1117.419800 1767.865234,1128.247559 1800.581665,1139.347656 
	C1832.494263,1150.174927 1864.123047,1161.847290 1895.788574,1173.389771 
	C1910.922241,1178.906250 1925.849609,1184.988647 1940.877319,1190.796875 
	C1943.969238,1191.991943 1947.037476,1192.860474 1949.760376,1188.914429 
	C1951.148315,1186.468994 1953.353149,1184.162476 1953.796509,1181.556396 
	C1957.702637,1158.594849 1961.349487,1135.588257 1964.890015,1112.567017 
	C1965.213989,1110.460938 1964.262939,1108.158813 1963.883911,1105.029297 
	C1964.597412,1090.685059 1965.310913,1076.340698 1966.813110,1061.813110 
M424.093903,270.589935 
	C420.491058,273.234253 416.900635,275.895599 413.283478,278.520203 
	C380.375885,302.397919 351.574646,330.667053 324.301575,361.471802 
	C319.273987,366.803528 314.153687,372.051208 309.233765,377.480469 
	C275.835632,414.336121 245.717773,453.731171 218.406479,495.277557 
	C175.402161,560.696350 141.185181,630.413452 115.777191,704.491272 
	C87.516090,786.887329 72.363869,871.811646 66.153503,958.489197 
	C65.675110,965.166138 66.090576,971.907166 66.090576,979.039246 
	C73.411018,976.370422 80.127831,973.956848 86.819916,971.476501 
	C147.514984,948.980774 208.021866,925.959351 268.965912,904.160034 
	C306.150421,890.859375 343.873138,879.006409 381.603363,867.307068 
	C409.895020,858.534302 438.450745,850.526794 467.132172,843.120850 
	C498.078796,835.129944 529.230835,827.884216 560.441101,820.981506 
	C582.669067,816.065308 605.114136,812.104919 627.513611,807.997742 
	C645.075073,804.777710 662.669250,801.673401 680.332642,799.090027 
	C698.990234,796.361328 717.745544,794.298340 736.460999,791.967712 
	C749.971802,790.285339 763.467468,788.451782 777.006042,787.030579 
	C791.727600,785.485291 806.477661,784.159485 821.239685,783.066223 
	C837.694641,781.847534 854.168701,780.822754 870.650085,780.044617 
	C883.567078,779.434692 896.510498,779.406250 909.437317,778.973572 
	C918.849609,778.658569 925.653809,774.378784 929.632629,765.577209 
	C945.205933,731.128113 966.186462,700.170105 992.073242,672.772339 
	C1003.852783,660.305237 1017.064270,649.055786 1030.432251,638.251343 
	C1063.932983,611.174866 1102.012329,592.652466 1143.429321,581.346680 
	C1186.185547,569.675354 1229.758545,566.201904 1273.943359,570.760498 
	C1319.264893,575.436523 1361.502319,589.471619 1400.982178,612.012756 
	C1435.602417,631.779236 1466.045166,656.539307 1491.809204,687.125000 
	C1506.387329,704.431274 1519.360840,722.777466 1530.234253,742.539429 
	C1543.337402,766.353394 1553.512573,791.433472 1560.046631,817.876587 
	C1562.341431,827.163696 1568.109741,832.090210 1577.290771,833.920288 
	C1588.943481,836.242920 1600.571777,838.730835 1612.124512,841.505737 
	C1658.761841,852.707947 1704.343750,867.283325 1748.946411,884.901428 
	C1771.056519,893.634888 1793.158691,902.399658 1815.105469,911.532288 
	C1833.434937,919.159607 1851.500244,927.419128 1869.741699,935.260803 
	C1891.757324,944.724976 1913.827148,954.063721 1935.892944,963.410645 
	C1941.167236,965.644714 1946.430908,967.963135 1951.861450,969.750488 
	C1956.502441,971.277954 1958.174683,969.954590 1957.959229,965.313599 
	C1957.472656,954.843506 1956.916626,944.372009 1956.120850,933.921509 
	C1952.995972,892.881165 1947.038452,852.279175 1938.184814,812.050171 
	C1920.140625,730.060791 1892.823242,651.431030 1854.564087,576.639893 
	C1812.052856,493.536743 1757.682617,419.031647 1692.177856,352.632629 
	C1641.699219,301.464691 1586.318115,256.221466 1526.319336,216.639618 
	C1392.281982,128.213699 1245.138428,78.425446 1084.975586,67.265228 
	C1049.075439,64.763687 1013.123047,64.289635 977.127747,65.763901 
	C941.671997,67.216080 906.378967,70.118958 871.212036,74.846375 
	C819.948547,81.737610 769.764160,93.341553 720.598755,109.284660 
	C632.746765,137.772842 551.178467,179.094910 475.064026,231.171768 
	C457.523285,243.173004 441.287842,257.082001 424.093903,270.589935 
M1919.481201,1272.945557 
	C1919.846191,1272.673462 1920.211060,1272.401367 1920.576050,1272.129272 
	C1920.143555,1271.752563 1919.711060,1271.375977 1919.293457,1270.330078 
	C1919.825928,1268.886719 1920.358521,1267.443359 1921.559570,1265.910156 
	C1921.484863,1265.211670 1921.410034,1264.513062 1921.387329,1263.068481 
	C1921.881958,1261.696899 1922.376709,1260.325439 1923.552246,1258.893433 
	C1923.642090,1257.760498 1923.731934,1256.627441 1923.790894,1254.743042 
	C1924.824463,1251.161987 1925.857910,1247.581055 1927.569702,1243.912476 
	C1927.653809,1242.772827 1927.737915,1241.633057 1927.716309,1240.201416 
	C1927.716309,1240.201416 1927.952759,1240.000000 1928.621216,1239.905518 
	C1928.688965,1238.768188 1928.756592,1237.630859 1928.792847,1235.733887 
	C1930.414062,1229.815186 1931.935547,1223.866943 1933.683228,1217.985840 
	C1935.605957,1211.514893 1933.624634,1207.358643 1927.068481,1205.091187 
	C1921.410645,1203.134399 1915.619141,1201.550781 1910.005859,1199.479614 
	C1872.675903,1185.706421 1835.602295,1171.196777 1798.003662,1158.205322 
	C1763.520752,1146.290649 1728.641968,1135.442749 1693.642334,1125.126709 
	C1661.718750,1115.717407 1629.471680,1107.368286 1597.227173,1099.098267 
	C1576.869385,1093.876831 1556.338623,1089.235352 1535.726562,1085.131714 
	C1520.532837,1082.106689 1520.494019,1083.118530 1512.193115,1094.533447 
	C1504.089844,1105.677124 1496.147339,1117.028564 1487.050781,1127.332153 
	C1478.635376,1136.864014 1469.105347,1145.498291 1459.477417,1153.848999 
	C1449.705933,1162.324219 1439.527710,1170.411621 1428.974243,1177.887817 
	C1404.710327,1195.076782 1378.677612,1209.005615 1350.862915,1219.746460 
	C1319.479492,1231.865479 1286.991211,1238.413818 1253.536255,1239.843384 
	C1234.915894,1240.638916 1216.165771,1240.855835 1197.719482,1237.004883 
	C1178.759644,1233.046753 1159.605347,1229.786499 1140.928589,1224.762207 
	C1114.046631,1217.530762 1088.395996,1206.767090 1064.369019,1192.644653 
	C1037.620117,1176.922363 1012.985291,1158.314941 992.427368,1134.878540 
	C982.135132,1123.145142 972.309265,1110.955566 962.938232,1098.472534 
	C949.371460,1080.400513 938.793091,1060.487915 929.064880,1040.142090 
	C926.715393,1035.228394 923.695007,1032.519287 917.722107,1032.893433 
	C902.043274,1033.875732 886.328125,1034.262329 870.634033,1035.022339 
	C859.430298,1035.565063 848.224426,1036.162354 837.042297,1037.029297 
	C817.197754,1038.567993 797.365173,1040.269653 777.537842,1042.019531 
	C762.975281,1043.304932 748.391235,1044.466309 733.884460,1046.237427 
	C712.069092,1048.901001 690.286682,1051.869263 668.538452,1055.038452 
	C642.342834,1058.855957 616.148254,1062.726196 590.047302,1067.131348 
	C571.062927,1070.335205 552.197998,1074.282837 533.339844,1078.188965 
	C510.077393,1083.007324 486.792236,1087.765625 463.673065,1093.212646 
	C438.521301,1099.138672 413.405914,1105.316528 388.530548,1112.296509 
	C348.640747,1123.489624 308.594147,1134.322510 269.280823,1147.324463 
	C212.216843,1166.197021 155.727325,1186.810303 99.040031,1206.815063 
	C88.290115,1210.608643 86.548103,1214.295532 89.335289,1225.469727 
	C108.800316,1303.508179 136.565063,1378.408081 174.310822,1449.510620 
	C224.912827,1544.830566 290.639954,1628.395386 369.752441,1701.666016 
	C469.741638,1794.271362 584.497253,1861.924438 713.650574,1904.957886 
	C822.036865,1941.072021 933.308167,1957.575684 1047.713745,1952.316772 
	C1092.864014,1950.241211 1137.693848,1945.903809 1182.102905,1937.732178 
	C1277.244751,1920.224731 1367.665894,1888.899902 1453.260254,1843.770630 
	C1538.068237,1799.055908 1613.975830,1742.332886 1681.679077,1674.503052 
	C1725.324097,1630.776367 1764.194214,1583.161133 1798.663818,1531.928345 
	C1803.107666,1525.323364 1807.333618,1518.552490 1811.294067,1511.648315 
	C1813.943481,1507.029541 1815.277588,1501.553223 1818.367188,1497.310669 
	C1825.850830,1487.034180 1832.665283,1476.430786 1838.441040,1465.095581 
	C1843.190063,1455.775146 1848.766602,1446.874146 1853.459351,1437.527588 
	C1861.466064,1421.580078 1869.673950,1405.688477 1876.684326,1389.297363 
	C1885.273438,1369.214722 1893.094116,1348.778809 1900.544800,1328.240967 
	C1907.159180,1310.008301 1912.813232,1291.427246 1919.481201,1272.945557 
z"/>
  <path fill="#FFFFFF" opacity="1.000000" stroke="none" d="
M1926.891479,1244.000000 
	C1925.857910,1247.581055 1924.824463,1251.161987 1923.543579,1255.383789 
	C1923.154663,1257.000854 1923.013062,1257.977417 1922.871460,1258.953857 
	C1922.376709,1260.325439 1921.881958,1261.696899 1921.215820,1263.688477 
	C1920.993286,1264.872437 1920.942139,1265.436157 1920.891113,1266.000000 
	C1920.358521,1267.443359 1919.825928,1268.886719 1919.141113,1270.979492 
	C1918.956055,1272.086060 1918.923584,1272.542969 1918.891113,1273.000000 
	C1912.813232,1291.427246 1907.159180,1310.008301 1900.544800,1328.240967 
	C1893.094116,1348.778809 1885.273438,1369.214722 1876.684326,1389.297363 
	C1869.673950,1405.688477 1861.466064,1421.580078 1853.459351,1437.527588 
	C1848.766602,1446.874146 1843.190063,1455.775146 1838.441040,1465.095581 
	C1832.665283,1476.430786 1825.850830,1487.034180 1818.367188,1497.310669 
	C1815.277588,1501.553223 1813.943481,1507.029541 1811.294067,1511.648315 
	C1807.333618,1518.552490 1803.107666,1525.323364 1798.663818,1531.928345 
	C1764.194214,1583.161133 1725.324097,1630.776367 1681.679077,1674.503052 
	C1613.975830,1742.332886 1538.068237,1799.055908 1453.260254,1843.770630 
	C1367.665894,1888.899902 1277.244751,1920.224731 1182.102905,1937.732178 
	C1137.693848,1945.903809 1092.864014,1950.241211 1047.713745,1952.316772 
	C933.308167,1957.575684 822.036865,1941.072021 713.650574,1904.957886 
	C584.497253,1861.924438 469.741638,1794.271362 369.752441,1701.666016 
	C290.639954,1628.395386 224.912827,1544.830566 174.310822,1449.510620 
	C136.565063,1378.408081 108.800316,1303.508179 89.335289,1225.469727 
	C86.548103,1214.295532 88.290115,1210.608643 99.040031,1206.815063 
	C155.727325,1186.810303 212.216843,1166.197021 269.280823,1147.324463 
	C308.594147,1134.322510 348.640747,1123.489624 388.530548,1112.296509 
	C413.405914,1105.316528 438.521301,1099.138672 463.673065,1093.212646 
	C486.792236,1087.765625 510.077393,1083.007324 533.339844,1078.188965 
	C552.197998,1074.282837 571.062927,1070.335205 590.047302,1067.131348 
	C616.148254,1062.726196 642.342834,1058.855957 668.538452,1055.038452 
	C690.286682,1051.869263 712.069092,1048.901001 733.884460,1046.237427 
	C748.391235,1044.466309 762.975281,1043.304932 777.537842,1042.019531 
	C797.365173,1040.269653 817.197754,1038.567993 837.042297,1037.029297 
	C848.224426,1036.162354 859.430298,1035.565063 870.634033,1035.022339 
	C886.328125,1034.262329 902.043274,1033.875732 917.722107,1032.893433 
	C923.695007,1032.519287 926.715393,1035.228394 929.064880,1040.142090 
	C938.793091,1060.487915 949.371460,1080.400513 962.938232,1098.472534 
	C972.309265,1110.955566 982.135132,1123.145142 992.427368,1134.878540 
	C1012.985291,1158.314941 1037.620117,1176.922363 1064.369019,1192.644653 
	C1088.395996,1206.767090 1114.046631,1217.530762 1140.928589,1224.762207 
	C1159.605347,1229.786499 1178.759644,1233.046753 1197.719482,1237.004883 
	C1216.165771,1240.855835 1234.915894,1240.638916 1253.536255,1239.843384 
	C1286.991211,1238.413818 1319.479492,1231.865479 1350.862915,1219.746460 
	C1378.677612,1209.005615 1404.710327,1195.076782 1428.974243,1177.887817 
	C1439.527710,1170.411621 1449.705933,1162.324219 1459.477417,1153.848999 
	C1469.105347,1145.498291 1478.635376,1136.864014 1487.050781,1127.332153 
	C1496.147339,1117.028564 1504.089844,1105.677124 1512.193115,1094.533447 
	C1520.494019,1083.118530 1520.532837,1082.106689 1535.726562,1085.131714 
	C1556.338623,1089.235352 1576.869385,1093.876831 1597.227173,1099.098267 
	C1629.471680,1107.368286 1661.718750,1115.717407 1693.642334,1125.126709 
	C1728.641968,1135.442749 1763.520752,1146.290649 1798.003662,1158.205322 
	C1835.602295,1171.196777 1872.675903,1185.706421 1910.005859,1199.479614 
	C1915.619141,1201.550781 1921.410645,1203.134399 1927.068481,1205.091187 
	C1933.624634,1207.358643 1935.605957,1211.514893 1933.683228,1217.985840 
	C1931.935547,1223.866943 1930.414062,1229.815186 1928.558105,1236.393555 
	C1928.199829,1238.035522 1928.076294,1239.017822 1927.952759,1240.000000 
	C1927.952759,1240.000000 1927.716309,1240.201416 1927.504639,1240.617554 
	C1927.159180,1242.022461 1927.025391,1243.011230 1926.891479,1244.000000 
z"/>
  <path fill="#F04D3C" opacity="1.000000" stroke="none" d="
M424.451721,270.113068 
	C441.287842,257.082001 457.523285,243.173004 475.064026,231.171768 
	C551.178467,179.094910 632.746765,137.772842 720.598755,109.284660 
	C769.764160,93.341553 819.948547,81.737610 871.212036,74.846375 
	C906.378967,70.118958 941.671997,67.216080 977.127747,65.763901 
	C1013.123047,64.289635 1049.075439,64.763687 1084.975586,67.265228 
	C1245.138428,78.425446 1392.281982,128.213699 1526.319336,216.639618 
	C1586.318115,256.221466 1641.699219,301.464691 1692.177856,352.632629 
	C1757.682617,419.031647 1812.052856,493.536743 1854.564087,576.639893 
	C1892.823242,651.431030 1920.140625,730.060791 1938.184814,812.050171 
	C1947.038452,852.279175 1952.995972,892.881165 1956.120850,933.921509 
	C1956.916626,944.372009 1957.472656,954.843506 1957.959229,965.313599 
	C1958.174683,969.954590 1956.502441,971.277954 1951.861450,969.750488 
	C1946.430908,967.963135 1941.167236,965.644714 1935.892944,963.410645 
	C1913.827148,954.063721 1891.757324,944.724976 1869.741699,935.260803 
	C1851.500244,927.419128 1833.434937,919.159607 1815.105469,911.532288 
	C1793.158691,902.399658 1771.056519,893.634888 1748.946411,884.901428 
	C1704.343750,867.283325 1658.761841,852.707947 1612.124512,841.505737 
	C1600.571777,838.730835 1588.943481,836.242920 1577.290771,833.920288 
	C1568.109741,832.090210 1562.341431,827.163696 1560.046631,817.876587 
	C1553.512573,791.433472 1543.337402,766.353394 1530.234253,742.539429 
	C1519.360840,722.777466 1506.387329,704.431274 1491.809204,687.125000 
	C1466.045166,656.539307 1435.602417,631.779236 1400.982178,612.012756 
	C1361.502319,589.471619 1319.264893,575.436523 1273.943359,570.760498 
	C1229.758545,566.201904 1186.185547,569.675354 1143.429321,581.346680 
	C1102.012329,592.652466 1063.932983,611.174866 1030.432251,638.251343 
	C1017.064270,649.055786 1003.852783,660.305237 992.073242,672.772339 
	C966.186462,700.170105 945.205933,731.128113 929.632629,765.577209 
	C925.653809,774.378784 918.849609,778.658569 909.437317,778.973572 
	C896.510498,779.406250 883.567078,779.434692 870.650085,780.044617 
	C854.168701,780.822754 837.694641,781.847534 821.239685,783.066223 
	C806.477661,784.159485 791.727600,785.485291 777.006042,787.030579 
	C763.467468,788.451782 749.971802,790.285339 736.460999,791.967712 
	C717.745544,794.298340 698.990234,796.361328 680.332642,799.090027 
	C662.669250,801.673401 645.075073,804.777710 627.513611,807.997742 
	C605.114136,812.104919 582.669067,816.065308 560.441101,820.981506 
	C529.230835,827.884216 498.078796,835.129944 467.132172,843.120850 
	C438.450745,850.526794 409.895020,858.534302 381.603363,867.307068 
	C343.873138,879.006409 306.150421,890.859375 268.965912,904.160034 
	C208.021866,925.959351 147.514984,948.980774 86.819916,971.476501 
	C80.127831,973.956848 73.411018,976.370422 66.090576,979.039246 
	C66.090576,971.907166 65.675110,965.166138 66.153503,958.489197 
	C72.363869,871.811646 87.516090,786.887329 115.777191,704.491272 
	C141.185181,630.413452 175.402161,560.696350 218.406479,495.277557 
	C245.717773,453.731171 275.835632,414.336121 309.233765,377.480469 
	C314.153687,372.051208 319.273987,366.803528 324.641602,361.668884 
	C324.277496,363.343933 323.814270,365.009186 322.832825,366.271484 
	C309.895966,382.910309 299.307678,400.989075 290.525208,420.077393 
	C273.338623,457.431671 263.783783,496.221985 268.815704,537.774231 
	C276.062378,597.615112 316.418793,643.936707 375.145264,658.985657 
	C413.250946,668.750488 451.426025,666.617554 489.433929,658.386414 
	C532.714783,649.013306 571.412537,629.449402 607.582092,604.376343 
	C660.489502,567.700378 703.206970,522.253235 729.453613,462.713562 
	C744.733154,428.052338 754.877197,392.227966 751.077209,353.783417 
	C745.204590,294.370911 714.429016,253.315384 659.078552,231.109146 
	C629.365601,219.188553 598.220520,217.835297 566.725647,220.853287 
	C517.408997,225.579086 472.317322,242.384354 430.459839,268.492218 
	C428.775452,269.542816 426.468567,269.595428 424.451721,270.113068 
z"/>
  <path fill="#505356" opacity="1.000000" stroke="none" d="
M1949.038330,1188.999390 
	C1947.037476,1192.860474 1943.969238,1191.991943 1940.877319,1190.796875 
	C1925.849609,1184.988647 1910.922241,1178.906250 1895.788574,1173.389771 
	C1864.123047,1161.847290 1832.494263,1150.174927 1800.581665,1139.347656 
	C1767.865234,1128.247559 1735.025269,1117.419800 1701.878174,1107.705811 
	C1665.912231,1097.165894 1629.598633,1087.779053 1593.300049,1078.419556 
	C1574.359131,1073.535522 1555.131470,1069.759521 1536.018188,1065.551392 
	C1530.190430,1064.268311 1524.335449,1063.077026 1518.451904,1062.088135 
	C1511.764893,1060.964355 1508.194946,1062.810547 1504.696533,1068.598389 
	C1489.634888,1093.516602 1471.766479,1116.232666 1450.331055,1135.946777 
	C1417.076416,1166.531006 1378.991699,1189.248047 1336.168945,1203.694336 
	C1314.133789,1211.127930 1291.556152,1216.613281 1268.221558,1218.018677 
	C1253.298950,1218.917358 1238.313110,1220.266479 1223.414429,1219.743042 
	C1193.956909,1218.708252 1165.115112,1213.877441 1136.998291,1204.316772 
	C1098.554199,1191.244385 1063.835815,1171.692993 1032.749146,1145.885986 
	C1005.274170,1123.077271 982.230774,1096.181519 964.623352,1064.992920 
	C957.281921,1051.989136 950.823364,1038.458984 944.492065,1024.921021 
	C938.948242,1013.066833 934.764587,1010.498596 921.460327,1012.131958 
	C914.716980,1012.959900 907.926575,1013.505249 901.140808,1013.867249 
	C879.736450,1015.009155 858.292053,1015.573242 836.923767,1017.171326 
	C813.281921,1018.939392 789.694885,1021.483582 766.106506,1023.908936 
	C744.499207,1026.130615 722.887817,1028.375000 701.341492,1031.108521 
	C681.615784,1033.610840 661.942932,1036.580811 642.304138,1039.704956 
	C615.456848,1043.976074 588.629028,1048.391846 561.860779,1053.129150 
	C546.351196,1055.874023 530.968079,1059.339478 515.539917,1062.538208 
	C493.789886,1067.047607 471.970917,1071.265625 450.337036,1076.279663 
	C437.249390,1079.312866 424.474854,1083.682617 411.525299,1087.329956 
	C397.480011,1091.286011 383.366180,1095.000000 369.333801,1099.000366 
	C348.264648,1105.007202 327.208008,1111.062866 306.210632,1117.314575 
	C295.590149,1120.476562 285.096954,1124.070923 274.571075,1127.545288 
	C234.871307,1140.649414 195.061096,1153.434082 155.533905,1167.040527 
	C132.141953,1175.092896 109.190361,1184.428345 86.071358,1193.266846 
	C81.403168,1195.051514 78.643570,1193.706177 77.192291,1187.874634 
	C75.029671,1179.184937 72.877533,1170.469116 71.314598,1161.659180 
	C68.940826,1148.278564 66.552513,1134.862793 65.132957,1121.360718 
	C63.503235,1105.859619 62.412422,1090.261230 62.014534,1074.681274 
	C61.495621,1054.362671 61.872086,1034.020752 61.893631,1013.688904 
	C61.904541,1003.393738 63.676109,1000.808228 73.397118,996.911865 
	C88.031990,991.045959 102.600571,985.001343 117.351242,979.440918 
	C136.138519,972.358887 155.100082,965.740479 173.947723,958.816589 
	C190.779999,952.633118 207.487473,946.103638 224.379486,940.090515 
	C248.787384,931.401978 273.234558,922.809448 297.806732,914.600281 
	C328.840302,904.232544 359.904358,893.927551 391.172821,884.302246 
	C410.161407,878.456970 429.535461,873.848389 448.782196,868.861206 
	C473.683655,862.408752 498.529663,855.695984 523.584290,849.893127 
	C553.791016,842.897156 584.065857,836.060852 614.542969,830.403809 
	C646.148804,824.537231 677.985046,819.840027 709.810120,815.252747 
	C730.641663,812.250061 751.605225,810.072266 772.559143,808.033630 
	C796.498657,805.704529 820.480652,803.772522 844.467896,801.985962 
	C861.687256,800.703613 878.943726,799.911255 896.187012,798.960754 
	C908.787781,798.266174 921.433167,798.045837 933.968201,796.743530 
	C936.804321,796.448914 940.272888,793.057190 941.717224,790.211487 
	C946.754883,780.286499 950.661804,769.788940 955.671997,759.848511 
	C968.465637,734.465393 984.510071,711.342163 1003.853088,690.400391 
	C1029.077637,663.091003 1058.320312,641.135193 1091.012817,623.773621 
	C1121.779663,607.434570 1154.433838,596.345276 1189.094604,592.089661 
	C1205.869507,590.030090 1222.811157,588.333740 1239.683228,588.280273 
	C1268.815918,588.188049 1297.482666,592.239685 1325.593018,600.538330 
	C1367.084839,612.787354 1403.746338,633.651367 1437.253418,660.623657 
	C1473.243286,689.594604 1501.053955,724.973450 1520.809570,766.677429 
	C1531.222290,788.658691 1539.225098,811.500122 1544.073242,835.381592 
	C1545.616333,842.982178 1551.077515,848.390259 1559.324585,849.857849 
	C1596.633545,856.497253 1633.160034,866.277649 1669.211182,877.781433 
	C1714.666992,892.286194 1759.219238,909.261841 1803.105957,927.997681 
	C1846.536865,946.538879 1890.036133,964.919373 1933.509033,983.361877 
	C1939.937622,986.088989 1946.239502,989.222778 1952.860107,991.363892 
	C1962.468750,994.471252 1966.073120,1001.089966 1965.955200,1010.590149 
	C1965.882812,1016.418091 1965.998291,1022.248291 1966.029053,1029.010986 
	C1966.027344,1040.628418 1966.026001,1051.312500 1966.024414,1061.996460 
	C1965.310913,1076.340698 1964.597412,1090.685059 1963.645264,1105.808105 
	C1962.964966,1110.189087 1962.413940,1113.781616 1962.098999,1117.394897 
	C1959.983398,1141.673340 1955.234375,1165.467407 1949.038330,1188.999390 
M1010.943420,888.314453 
	C1010.943054,893.918030 1010.949524,899.521606 1010.941345,905.125183 
	C1010.910706,926.075867 1014.722900,946.448120 1021.025391,966.300110 
	C1038.570435,1021.564087 1071.606934,1065.126831 1121.078247,1095.589966 
	C1170.973267,1126.314087 1225.258179,1136.052856 1282.879883,1126.664795 
	C1310.483887,1122.167480 1336.520508,1112.764771 1360.810547,1098.643066 
	C1392.148560,1080.423706 1417.946655,1056.264526 1437.793335,1026.056396 
	C1469.345825,978.031738 1480.958984,925.004700 1474.787109,868.155762 
	C1471.732422,840.019470 1463.037354,813.434326 1449.793091,788.290344 
	C1433.544678,757.443298 1411.505005,731.549561 1383.791016,710.641235 
	C1342.913208,679.802063 1296.480469,664.579468 1245.405151,664.315552 
	C1230.552246,664.238831 1215.522583,665.706787 1200.856567,668.157715 
	C1154.187378,675.957214 1114.220215,697.445190 1080.470581,730.313232 
	C1064.702759,745.669250 1051.388428,763.086121 1040.630493,782.451538 
	C1022.475403,815.132263 1012.029663,849.897095 1010.943420,888.314453 
z"/>
  <path fill="#FFFFFF" opacity="1.000000" stroke="none" d="
M424.272827,270.351501 
	C426.468567,269.595428 428.775452,269.542816 430.459839,268.492218 
	C472.317322,242.384354 517.408997,225.579086 566.725647,220.853287 
	C598.220520,217.835297 629.365601,219.188553 659.078552,231.109146 
	C714.429016,253.315384 745.204590,294.370911 751.077209,353.783417 
	C754.877197,392.227966 744.733154,428.052338 729.453613,462.713562 
	C703.206970,522.253235 660.489502,567.700378 607.582092,604.376343 
	C571.412537,629.449402 532.714783,649.013306 489.433929,658.386414 
	C451.426025,666.617554 413.250946,668.750488 375.145264,658.985657 
	C316.418793,643.936707 276.062378,597.615112 268.815704,537.774231 
	C263.783783,496.221985 273.338623,457.431671 290.525208,420.077393 
	C299.307678,400.989075 309.895966,382.910309 322.832825,366.271484 
	C323.814270,365.009186 324.277496,363.343933 324.923828,361.520630 
	C351.574646,330.667053 380.375885,302.397919 413.283478,278.520203 
	C416.900635,275.895599 420.491058,273.234253 424.272827,270.351501 
z"/>
  <path fill="#17191C" opacity="1.000000" stroke="none" d="
M1949.399414,1188.956909 
	C1955.234375,1165.467407 1959.983398,1141.673340 1962.098999,1117.394897 
	C1962.413940,1113.781616 1962.964966,1110.189087 1963.655273,1106.267334 
	C1964.262939,1108.158813 1965.213989,1110.460938 1964.890015,1112.567017 
	C1961.349487,1135.588257 1957.702637,1158.594849 1953.796509,1181.556396 
	C1953.353149,1184.162476 1951.148315,1186.468994 1949.399414,1188.956909 
z"/>
  <path fill="#151719" opacity="1.000000" stroke="none" d="
M1966.418823,1061.904785 
	C1966.026001,1051.312500 1966.027344,1040.628418 1966.070068,1029.478760 
	C1966.736816,1029.827271 1967.896484,1030.635742 1967.905518,1031.456787 
	C1968.011230,1041.071045 1967.960693,1050.687134 1967.875244,1060.302246 
	C1967.870728,1060.808960 1967.182861,1061.309692 1966.418823,1061.904785 
z"/>
  <path fill="#19171C" opacity="1.000000" stroke="none" d="
M1928.286987,1239.952759 
	C1928.076294,1239.017822 1928.199829,1238.035522 1928.573853,1236.773438 
	C1928.756592,1237.630859 1928.688965,1238.768188 1928.286987,1239.952759 
z"/>
  <path fill="#19171C" opacity="1.000000" stroke="none" d="
M1927.230591,1243.956299 
	C1927.025391,1243.011230 1927.159180,1242.022461 1927.557617,1240.763550 
	C1927.737915,1241.633057 1927.653809,1242.772827 1927.230591,1243.956299 
z"/>
  <path fill="#19171C" opacity="1.000000" stroke="none" d="
M1923.211914,1258.923584 
	C1923.013062,1257.977417 1923.154663,1257.000854 1923.559082,1255.759521 
	C1923.731934,1256.627441 1923.642090,1257.760498 1923.211914,1258.923584 
z"/>
  <path fill="#19171C" opacity="1.000000" stroke="none" d="
M1921.225342,1265.955078 
	C1920.942139,1265.436157 1920.993286,1264.872437 1921.189819,1264.061523 
	C1921.410034,1264.513062 1921.484863,1265.211670 1921.225342,1265.955078 
z"/>
  <path fill="#19171C" opacity="1.000000" stroke="none" d="
M1919.186157,1272.972778 
	C1918.923584,1272.542969 1918.956055,1272.086060 1919.133545,1271.314209 
	C1919.711060,1271.375977 1920.143555,1271.752563 1920.576050,1272.129272 
	C1920.211060,1272.401367 1919.846191,1272.673462 1919.186157,1272.972778 
z"/>
  <path fill="#1A191E" opacity="1.000000" stroke="none" d="
M1010.944092,887.837219 
	C1012.029663,849.897095 1022.475403,815.132263 1040.630493,782.451538 
	C1051.388428,763.086121 1064.702759,745.669250 1080.470581,730.313232 
	C1114.220215,697.445190 1154.187378,675.957214 1200.856567,668.157715 
	C1215.522583,665.706787 1230.552246,664.238831 1245.405151,664.315552 
	C1296.480469,664.579468 1342.913208,679.802063 1383.791016,710.641235 
	C1411.505005,731.549561 1433.544678,757.443298 1449.793091,788.290344 
	C1463.037354,813.434326 1471.732422,840.019470 1474.787109,868.155762 
	C1480.958984,925.004700 1469.345825,978.031738 1437.793335,1026.056396 
	C1417.946655,1056.264526 1392.148560,1080.423706 1360.810547,1098.643066 
	C1336.520508,1112.764771 1310.483887,1122.167480 1282.879883,1126.664795 
	C1225.258179,1136.052856 1170.973267,1126.314087 1121.078247,1095.589966 
	C1071.606934,1065.126831 1038.570435,1021.564087 1021.025391,966.300110 
	C1014.722900,946.448120 1010.910706,926.075867 1010.941345,905.125183 
	C1010.949524,899.521606 1010.943054,893.918030 1010.944092,887.837219 
M1058.332764,792.844360 
	C1033.585571,837.777710 1025.067749,885.587646 1034.375366,936.055237 
	C1053.323364,1038.794800 1150.608521,1120.632690 1262.939453,1108.197876 
	C1313.697021,1102.579102 1357.906372,1082.694702 1393.981567,1046.612183 
	C1447.068970,993.514099 1465.733765,929.030334 1451.609131,855.803284 
	C1430.390625,745.799622 1329.810913,670.986877 1214.418335,686.507751 
	C1145.636963,695.759216 1094.093872,732.627075 1058.332764,792.844360 
z"/>
  <path fill="#FEFEFE" opacity="1.000000" stroke="none" d="
M1058.543579,792.541870 
	C1094.093872,732.627075 1145.636963,695.759216 1214.418335,686.507751 
	C1329.810913,670.986877 1430.390625,745.799622 1451.609131,855.803284 
	C1465.733765,929.030334 1447.068970,993.514099 1393.981567,1046.612183 
	C1357.906372,1082.694702 1313.697021,1102.579102 1262.939453,1108.197876 
	C1150.608521,1120.632690 1053.323364,1038.794800 1034.375366,936.055237 
	C1025.067749,885.587646 1033.585571,837.777710 1058.543579,792.541870 
M1082.235840,867.779114 
	C1079.222168,885.978210 1078.979492,904.173767 1081.767334,922.449951 
	C1096.233398,1017.284363 1189.410034,1079.600830 1282.388184,1056.547974 
	C1366.452759,1035.705078 1419.441772,954.693298 1405.162354,868.845947 
	C1389.447266,774.367859 1293.109131,712.386658 1200.800415,738.843018 
	C1136.104980,757.385315 1097.055176,801.296753 1082.235840,867.779114 
z"/>
  <path fill="#1B1A1F" opacity="1.000000" stroke="none" d="
M1082.321167,867.356445 
	C1097.055176,801.296753 1136.104980,757.385315 1200.800415,738.843018 
	C1293.109131,712.386658 1389.447266,774.367859 1405.162354,868.845947 
	C1419.441772,954.693298 1366.452759,1035.705078 1282.388184,1056.547974 
	C1189.410034,1079.600830 1096.233398,1017.284363 1081.767334,922.449951 
	C1078.979492,904.173767 1079.222168,885.978210 1082.321167,867.356445 
M1207.977051,1043.666382 
	C1221.176270,1044.939575 1234.405151,1047.536011 1247.569214,1047.240845 
	C1289.079468,1046.310059 1324.836182,1030.862183 1352.969971,1000.178589 
	C1386.443481,963.671387 1399.595337,920.085510 1392.529907,871.188965 
	C1387.855713,838.841370 1372.058716,811.572693 1348.133179,789.430725 
	C1311.264160,755.310120 1267.620361,740.348999 1217.832642,748.427979 
	C1135.733154,761.750000 1078.264038,844.234192 1095.473877,925.875610 
	C1108.345459,986.937317 1147.139160,1025.896606 1207.977051,1043.666382 
z"/>
  <path fill="#FFFFFF" opacity="1.000000" stroke="none" d="
M1207.587402,1043.518799 
	C1147.139160,1025.896606 1108.345459,986.937317 1095.473877,925.875610 
	C1078.264038,844.234192 1135.733154,761.750000 1217.832642,748.427979 
	C1267.620361,740.348999 1311.264160,755.310120 1348.133179,789.430725 
	C1372.058716,811.572693 1387.855713,838.841370 1392.529907,871.188965 
	C1399.595337,920.085510 1386.443481,963.671387 1352.969971,1000.178589 
	C1324.836182,1030.862183 1289.079468,1046.310059 1247.569214,1047.240845 
	C1234.405151,1047.536011 1221.176270,1044.939575 1207.587402,1043.518799 
z"/>
</svg>
